<!-- src/assets/pig-parts/heads/grumpy.svg -->
<svg viewBox="0 0 60 60" xmlns="http://www.w3.org/2000/svg">
  <!-- Grumpy pig head -->
  <circle 
    cx="30" 
    cy="30" 
    r="25" 
    fill="#ffbebe"
    stroke="#ff9999"
    stroke-width="0.5"
  />
  
  <!-- Eyes - angry eyebrows -->
  <circle cx="20" cy="27" r="3.5" fill="white" stroke="#333" stroke-width="0.5" />
  <circle cx="40" cy="27" r="3.5" fill="white" stroke="#333" stroke-width="0.5" />
  <circle cx="20" cy="27" r="2" fill="#333" />
  <circle cx="40" cy="27" r="2" fill="#333" />
  
  <!-- Angry eyebrows -->
  <path d="M14,23 L21,24" fill="none" stroke="#333" stroke-width="1.5" stroke-linecap="round" />
  <path d="M46,23 L39,24" fill="none" stroke="#333" stroke-width="1.5" stroke-linecap="round" />
  
  <!-- Grumpy wrinkled forehead -->
  <path d="M22,16 C26,14 34,14 38,16" fill="none" stroke="#ff9999" stroke-width="0.5" stroke-linecap="round" />
  
  <!-- Snout -->
  <ellipse cx="30" cy="37" rx="11" ry="9" fill="#ffaba5" stroke="#ff9999" stroke-width="0.5" />
  
  <!-- Nostrils -->
  <ellipse cx="26" cy="38" rx="2" ry="2.5" fill="#ff7b7b" />
  <ellipse cx="34" cy="38" rx="2" ry="2.5" fill="#ff7b7b" />
  
  <!-- Grumpy mouth (turned down) -->
  <path d="M24,42 L36,42" fill="none" stroke="#ff6b81" stroke-width="1.5" stroke-linecap="round" />
  <path d="M24,42 C24,40 26,39 26,39" fill="none" stroke="#ff6b81" stroke-width="1" stroke-linecap="round" />
  <path d="M36,42 C36,40 34,39 34,39" fill="none" stroke="#ff6b81" stroke-width="1" stroke-linecap="round" />
</svg>