<!-- src/assets/pig-parts/heads/robot.svg -->
<svg viewBox="0 0 60 60" xmlns="http://www.w3.org/2000/svg">
  <!-- Robot pig head -->
  <rect 
    x="8" 
    y="10" 
    width="44" 
    height="42" 
    rx="4"
    fill="#ffcad4"
    stroke="#ff9999"
    stroke-width="0.5"
  />
  
  <!-- Antenna -->
  <line x1="30" y1="10" x2="30" y2="5" stroke="#666" stroke-width="1" />
  <circle cx="30" cy="4" r="2" fill="#ff9999" />
  
  <!-- Robot eyes -->
  <rect x="15" y="20" width="10" height="6" rx="1" fill="#333" />
  <rect x="35" y="20" width="10" height="6" rx="1" fill="#333" />
  
  <!-- Glowing eye lights -->
  <circle cx="18" cy="23" r="1.5" fill="#00ffff" />
  <circle cx="38" cy="23" r="1.5" fill="#00ffff" />
  <circle cx="22" cy="23" r="1.5" fill="#00ffff" />
  <circle cx="42" cy="23" r="1.5" fill="#00ffff" />
  
  <!-- Mechanical snout -->
  <rect x="20" y="32" width="20" height="12" rx="6" fill="#ffaba5" stroke="#ff9999" stroke-width="0.5" />
  
  <!-- Rivets around snout -->
  <circle cx="22" cy="34" r="1" fill="#666" />
  <circle cx="38" cy="34" r="1" fill="#666" />
  <circle cx="22" cy="42" r="1" fill="#666" />
  <circle cx="38" cy="42" r="1" fill="#666" />
  
  <!-- Digital nostrils -->
  <rect x="25" y="35" width="3" height="3" rx="1" fill="#ff7b7b" />
  <rect x="32" y="35" width="3" height="3" rx="1" fill="#ff7b7b" />
  
  <!-- Mouth screen/speaker -->
  <rect x="26" y="40" width="8" height="2" rx="1" fill="#333" />
  <line x1="28" y1="40" x2="28" y2="42" stroke="#00ffff" stroke-width="0.5" />
  <line x1="30" y1="40" x2="30" y2="42" stroke="#00ffff" stroke-width="0.5" />
  <line x1="32" y1="40" x2="32" y2="42" stroke="#00ffff" stroke-width="0.5" />
  
  <!-- Circuit detail -->
  <path d="M12,16 L16,16 L16,18 L20,18" fill="none" stroke="#ff9999" stroke-width="0.5" />
  <path d="M48,16 L44,16 L44,18 L40,18" fill="none" stroke="#ff9999" stroke-width="0.5" />
</svg>