<!-- src/assets/pig-parts/heads/vampire.svg -->
<svg viewBox="0 0 60 60" xmlns="http://www.w3.org/2000/svg">
  <!-- Vampire pig head - slightly paler pink -->
  <circle 
    cx="30" 
    cy="30" 
    r="25" 
    fill="#ffd0d0"
    stroke="#ff9999"
    stroke-width="0.5"
  />
  
  <!-- Eyes - spooky red -->
  <circle cx="20" cy="26" r="4" fill="white" stroke="#333" stroke-width="0.5" />
  <circle cx="40" cy="26" r="4" fill="white" stroke="#333" stroke-width="0.5" />
  <circle cx="20" cy="26" r="2" fill="#aa0000" />
  <circle cx="40" cy="26" r="2" fill="#aa0000" />
  
  <!-- Vampire hairline -->
  <path d="M30,8 L25,14 L35,14 Z" fill="#333" />
  
  <!-- Snout -->
  <ellipse cx="30" cy="37" rx="11" ry="9" fill="#ffaba5" stroke="#ff9999" stroke-width="0.5" />
  
  <!-- Nostrils -->
  <ellipse cx="26" cy="37" rx="2" ry="2.5" fill="#ff7b7b" />
  <ellipse cx="34" cy="37" rx="2" ry="2.5" fill="#ff7b7b" />
  
  <!-- Vampire mouth with fangs -->
  <path d="M23,40 C26,44 34,44 37,40" fill="none" stroke="#aa0000" stroke-width="1" stroke-linecap="round" />
  
  <!-- Fangs -->
  <path d="M25,40 L26,45" fill="none" stroke="white" stroke-width="1.5" stroke-linecap="round" />
  <path d="M35,40 L34,45" fill="none" stroke="white" stroke-width="1.5" stroke-linecap="round" />
  
  <!-- Blood drop -->
  <circle cx="26" cy="46" r="1" fill="#aa0000" />
  
  <!-- Subtle blood trail -->
  <path d="M26,47 C26,51 30,48 30,48" fill="none" stroke="#aa0000" stroke-width="0.5" stroke-linecap="round" opacity="0.7" />
</svg>